/* XPM */
static char *collect_resized[] = {
/* columns rows colors chars-per-pixel */
"48 48 195 2 ",
"   c #081515",
".  c #0D1A19",
"X  c #131B1B",
"o  c #191A1C",
"O  c #211719",
"+  c #2B1E22",
"@  c #371F24",
"#  c #1C2220",
"$  c #2C2425",
"%  c #232124",
"&  c #3C2124",
"*  c #37272A",
"=  c #551E25",
"-  c #791F2C",
";  c #502730",
":  c #7A242E",
">  c #672832",
",  c #792C3D",
"<  c #5A482F",
"1  c #654E31",
"2  c #794736",
"3  c #633142",
"4  c #6E3643",
"5  c #753846",
"6  c #7F7750",
"7  c #697373",
"8  c #707475",
"9  c #9D2F3B",
"0  c #952E3B",
"q  c #8A313F",
"w  c #87653B",
"e  c #8B3B56",
"r  c #933D55",
"t  c #9A3C54",
"y  c #B83947",
"u  c #A33953",
"i  c #AA3D54",
"p  c #B23A53",
"a  c #BE3B50",
"s  c #AF3546",
"d  c #CA384E",
"f  c #D53749",
"g  c #D43A4D",
"h  c #DD394C",
"j  c #C43C51",
"k  c #CA3D54",
"l  c #E0364B",
"z  c #E2394C",
"x  c #EC3A4D",
"c  c #954456",
"v  c #9A4656",
"b  c #9C4A56",
"n  c #934B5B",
"m  c #A04E57",
"M  c #A45358",
"N  c #A65859",
"B  c #B74D54",
"V  c #917150",
"C  c #BD6B59",
"Z  c #AD7559",
"A  c #BF715A",
"S  c #A97447",
"D  c #A35B60",
"F  c #9B7F65",
"G  c #B37D65",
"H  c #A97465",
"J  c #DA514F",
"K  c #E24651",
"L  c #E94752",
"P  c #E45155",
"I  c #C67559",
"U  c #CD7D5B",
"Y  c #D07F5D",
"T  c #DF6456",
"R  c #ED6152",
"E  c #F0675F",
"W  c #C46C61",
"Q  c #F17464",
"!  c #BD854A",
"~  c #9C8B6F",
"^  c #9A856A",
"/  c #9E8F72",
"(  c #A28267",
")  c #A8896D",
"_  c #B3856A",
"`  c #BD856A",
"'  c #BB896E",
"]  c #B28A6E",
"[  c #AD8D70",
"{  c #B38D71",
"}  c #BC8E72",
"|  c #A49376",
" . c #AA9375",
".. c #A89778",
"X. c #AD9B7D",
"o. c #B39275",
"O. c #BC9275",
"+. c #B29C7C",
"@. c #BB997A",
"#. c #B69678",
"$. c #D5855B",
"%. c #D8865B",
"&. c #D69551",
"*. c #D4804F",
"=. c #E18E5C",
"-. c #E3855A",
";. c #EB9B5A",
":. c #E19C53",
">. c #F19F5C",
",. c #FE985A",
"<. c #F98559",
"1. c #D3A35E",
"2. c #F1A05C",
"3. c #FBA95D",
"4. c #FFB35E",
"5. c #E4A65E",
"6. c #C28469",
"7. c #C3886E",
"8. c #C48D71",
"9. c #CC8D71",
"0. c #C39275",
"q. c #CB9375",
"w. c #C59678",
"e. c #CE9779",
"r. c #C39C7D",
"t. c #CD9D7E",
"y. c #CE9E77",
"u. c #D39275",
"i. c #D49A7C",
"p. c #D1896E",
"a. c #F79370",
"s. c #F09168",
"d. c #DEA874",
"f. c #E9A56A",
"g. c #FEBD6B",
"h. c #F4A576",
"j. c #EFB26F",
"k. c #F6CC7B",
"l. c #BF9F80",
"z. c #ACA080",
"x. c #B4A482",
"c. c #BBA382",
"v. c #B6A987",
"b. c #BDA986",
"n. c #BBAD8A",
"m. c #BEB08D",
"M. c #C89F80",
"N. c #C3A483",
"B. c #CCA483",
"V. c #C0A987",
"C. c #C9A987",
"Z. c #C5AD8A",
"A. c #CAAD8A",
"S. c #D2A382",
"D. c #D3AC89",
"F. c #D9AC8A",
"G. c #DCA685",
"H. c #C3B28E",
"J. c #CCB18E",
"K. c #D8B38F",
"L. c #C5B691",
"P. c #CDB591",
"I. c #C6B994",
"U. c #CABA95",
"Y. c #CEBE99",
"T. c #DABA94",
"R. c #D6BF99",
"E. c #DCBF99",
"W. c #D3B792",
"Q. c #E5AB8A",
"!. c #E0B18D",
"~. c #E2BD97",
"^. c #E8B894",
"/. c #CEC19B",
"(. c #D3C39C",
"). c #DDC39B",
"_. c #DBC89F",
"`. c #F5C682",
"'. c #FED789",
"]. c #E5C59D",
"[. c #E8C19A",
"{. c #E9D084",
"}. c #FFEA92",
"|. c #D6C7A0",
" X c #DCCBA3",
".X c #E3CDA4",
"XX c #EBCDA4",
"oX c #E3D3AA",
"OX c #EBD3A9",
"+X c #EAD8AD",
"@X c #ECDBB1",
"#X c #F1D5AB",
"$X c #EFE0B5",
"%X c #DDDFDF",
"&X c white",
/* pixels */
"[..XY.Z./.(.I.L.U.(.U.H.n.L.U.X.N. X/.U.L.L.(.(.R.I.Y.Y.Y.H.F.u.G 9.e.+X|.(.Y.(.I.I.U.Y.V.K.~.F.",
"(.R.U.H.Y.U.H.Y.Y.H.H.v.v.Z.x.( D.+X/.Y.U.(.I.L.L.I.W.H.H.(.H.' u.6.Q. XY.|.Y.Y.R.I.Y.I.Y.|.Y.(.",
"I.U.I.L.Y.I.R.I.v.L.X.x.o.q.O.u.OXoX(.Y.U.(.H.L.H.H.L.L.I.U.m.o.S.)..XU.Y.L.(.Y./.Y.|.U.U.I.P.L.",
"L.U.H.U.I.Y.(.n.[ O.t.} O.q.9.~. X(.U.U.Y.L.L.U.Y._.I.I.H.L.H.| O.b.b.b.|.|. X|.U. XU.n.v.X.n.U.",
"/.I.H.J.I.I.Y.I.M.Q..XL.T.' Q.|.(.(.I.I.U.U.U./././.U.P.I.J.I.x.9.r.).D.b.A._.n.[ V. .[ [ N.@.P.",
"V.H.H./.P.Y.H. .) ' (.(./.r.8.] .XoXU.Y.L.n.L.L.H.H.m.H.U.I.I.(.(..X(._..XD.C. .M.E.J..X XoXP.M.",
"t.@./.v.b.n.^ Z i.u.R.(. XY.D.~.oXY.Y.v. .{ M.m.(.P.Y./.J.I.Y.U.Y.L.U.(.Y.U.U.R.OX@XY.U.U.U.I.L.",
"/.t.C.[ t.) r.[.].&X&X&X&X&X&X&X&X&X&X&X&X&X&X&X&X&X&X&X&X&X&X&X&X&X&X&X&X&X&XW. XY.L.U.Y.U.U.U.",
"L.U.c.q.i.F.].|. X&X&X&X&X&X&X&X&X&X&X&X&X&X&X&X&X&X&X&X&X&X&X&X&X&X&X&X&X&X&X[. XU.J.Y.Y.L.U.L.",
"L.n.X.9.9.r.W.I.(.&X&X&X&X&X&X&X&X&X&X&X&X&X&X&X&X&X&X&X&X&X&X&X&X&X&X&X&X&X&XOX(.I.U.(.Y.I.L.L.",
"X.X.o.u.D.q.e.' J.%X%X%X%X%X%X%X%X%X%X%X%X%X%X%X%X%X%X%X%X%X%X%X%X%X%X%X%X%X%X(././.Y.I.Y.P.U.z.",
"O.' w.7.J.T.E.u.i.8 8 7 7 7 7 7 7 7 7 7 7 7 7 7 7 7 7 7 7 7 7 7 7 7 7 7 7 8 8 U.Y.L.H.m.n.n.~ F ",
"D.Q.t.y. X_.I.A.T.# # $ $ $ $ $ $ $ $ $ $ $ $ $ $ $ $ $ $ $ $ $ $ $ $ $ % # # Y.H.I.c.~ l.| #.W.",
"I.oX_._.Y.v.H._. X  O = : : - : - - : : : : : : : : : : : : : : : : > ; & X   H.H.x.~ ).OX X XY.",
"_.(.H.H.H.Y. X(.Y.. & 0 f K g h K g f f f f f f f f f f f f f f f f a r 3 + . I.x. .oX XI.U.I.U.",
"(./.U._.(.(.P./.L.. & 9 L E s.a.s.E L x z x z x z x x z x z x z x z k t 3 $ X U. .XX Xm.Z.I.U.U.",
"I.H.I.Y./.P.Y.Y.P.  & 0 P a.`.'.`.s.K h l z h z z h z h z z h z z h j t 3 $ . v. . XU.L.v.P.(.U.",
"U.H.L.L.U.Y.P.I.W.  @ 0 P Q h.h.a.Q h h l z z h h z l z h z h z z z j t 3 % . v.[ W.U.H.L. XR.L.",
"/.H...V././.I.L.U.. & 9 l L P P P L h l z h z z z z z h z h z h z z j t 3 $ . ^ } XX|.U.I.U.I.Y.",
"H.H.O.7.B.L.v.I.L.< 2 B l l l l h l z z z z z z z z z z z z z z z h j t 5 > ; B.!.@.W.U.I.U.Y.Y.",
"/.Y.).).G 0.{ V.Y.&.U J z h l z l l z h z h h l h h z h z h z z z h a t t s y OXU.R..X|.R.Y.Y.U.",
"/.H._.(.@.Q.D..X(.4.,.R l l l z l f d d d d d d d d d d d d f h z z a t i f z /.(.(.L.(.(.|.|.L.",
"U. X@X X_.OXoXoXP.4.,.R z z z z z j i u u u t u u u u u u i j z x h a t i f x _.R.L.(.(.Y.(.(.Y.",
"(.oXoX|.(._./.L.L.g.2.T g d d g d p r n D D N N M M M M c r p d g d p r u g z _.Y.U.R.(.Y.I.Y.(.",
"I.(.(./.I.I./.I.I.k.j.W i u u i u t r H y.d.=.&.=.=.%.*.N e r u u i t e i g l Y.U.I.U.(./.U.U.U.",
"m.m.| X.X.+.#.H./.}.{.6.m b b M m b m 6.k.k.f.:.&.:.3.2.I M b m b M b m B J L I.L.L.m.z.l.x.x...",
"r.X.@.i.9.t.B.t.(.}.'.d.$.*.$.$.$.U %.f.g.1.w 1 1 w &.3.;.%.$.$.$.$.$.$.Y <.<.L.U.R.X.} J.n.N.t.",
"_.OXU._.].oX XW.m.k.k.j.2.>.2.2.>.>.f.3.3.! < $ $ < ! 4.3.2.>.>.2.2.2.2.>.>.;.J.m.n. .XX X X.X_.",
"(.Y.m._.(./.(.(.(.V V Z I I I I I I I =.3.&.S w w S :.3.=.I I I I I I I Z w w m...) ). XL.U.L.U.",
"H.I.(._.U.|.(.U.I.# * 4 v v c c v r v C ;.3.2.;.;.;.3.;.C v c v c v v v , * # ..@.+X XL.(.U.L.L.",
"I.U.(.U.Y.I.I.H.L.  + , p p p p p t e M A Y Y Y $.Y U A M e e e e e e e 3 #   +._.(.I.U._.U.L.L.",
"U.U.U.H.I.U.P.Y.) . @ 9 f h h f f p t c v b b v v b b v c e r e e r c r 3 $ X  XY.(.L.R.Y.L.L.L.",
"/.U.P.L.P././.m.( . & 9 x x x x z g p p p p p p p p p p p p p a p p B r 3 $ . U.Y.Y.L.U.U.U.R.I.",
"_.I.P.I.U.U.U.H.t.. & 9 z z h z z g g g g g f f g g g g g h g g g g a r 3 $ X L.U.L.L.U.U.Y.Y.Y.",
"/.U.L.U././.U.U.(.. + > 9 9 9 9 9 9 9 9 9 0 9 9 9 9 9 9 9 9 9 9 0 0 e > ; # X H.Y.U.U.I.L.U.L.Y.",
"I.I.U.U.U.U.U.U.(.X o + & & & & & & & & @ ; & & = @ @ @ & & & & @ ; @ + % o X r.R.U.Y.U.H.L.L.L.",
"H.H.I.U.U.U.I.L.m.X X . . . . . . . . . . . . .   . . . . . . . . . . . X X X C.M.L.Y.U.U.R.I.L.",
"J.I./././.x./ +. .[ X.X.X.( t.H.H.I.H.m.(.H. ._ _ T.K.^.R.U.x.A.Y.b.U.(.L.I.I.Y.Z.r.n.U.L.L.U.L.",
"U.(.v.x.~ | H.].).).J.w.8.e.9.} ) C.z.C.(.I.F p.^.oX.X(.(.Y.+.w.@.{ J.Y.U.L.U.P.U.Z.B.L.H.L.L.L.",
"I.v.) _ 0.+X_.(._.(./._.[.(.r.' u.K.r.i.H./ O.~..XY.U.L.H.H.L.J.7.i.).(.L.U.I.L.I.I.Z.t.b.+.H.L.",
"+.+.0.t.[. XH.L.H.n.H.I.Y.I.X.` u.).P.7.O.t.]. X/.(./.U.I.H.I. .t..XH.U.L.H.I.L.U.L.L.].OXU.@.x.",
"_.oX.X X_._.L.X.c.n.H.I.P.x.{ i.9.S. .t.OX X X/.(._.U.L.n.H.v._ G.+._ O.b.Y.L.I.U.H.L.U.L.U.(.].",
"m.m.U.I.I.U.v. .' /. X(.U.| 0.(.' 9.9.F./.U.I.H.(./.P.I.Z.Y.v.q.t.i.q.u.XX XL.U.L.v.z.X.v.H.H.n.",
"O. .^ #.n.X.c.H.y.G._.Y.I.H.K.C.J.` u.q.K.L. .O.V.H.v.v.I.I./.+.G 7.t.].oXP.Y.U.v.[ w.' N.L.v.^ ",
"T.].K.W._ 0.B.o.).D.U.I.I.H./.o./.C.0.` 9._ } [.t.@.@.O.r._./.+.W.D.' .X/.U.U.Y.n.` XXr.!.H.] K.",
"H.(.n.+.O.F.C.q._.b.).(.P.H./.@.t.Y.D.!.i.e.K./.m.t.6.e.]./.n.X.I.X.D..XY. X(.(.n.e.P.x.S.N.} R.",
"w.+.~ t.y.[.(.)./.L._.(.I.H.Y.X.F.$X_. X).(.@.O.@.r.D.[. XH.x.7.} Z T._.U.|./.(.Y.Z.r.0.6.0.8.7.",
"6.r.oX(.(..X/./.H.(._.U.m.m.I.r.K.oX(.Y.(./.].#X].oX_./.I.+.o.7.S.u.i.oX(.|.|.|.I.Y. XW.q.` ' 9."
};
