/* XPM */
static char *Elements_03_128x128_resized[] = {
/* columns rows colors chars-per-pixel */
"48 48 240 2 ",
"   c #020000",
".  c #0B0100",
"X  c #130100",
"o  c #1C0200",
"O  c #1B0901",
"+  c #240200",
"@  c #2B0200",
"#  c #230B03",
"$  c #2C0B01",
"%  c #340200",
"&  c #3C0300",
"*  c #340B01",
"=  c #3C0A01",
"-  c #2B1206",
";  c #3C1303",
":  c #371405",
">  c #430300",
",  c #4C0300",
"<  c #430B01",
"1  c #4C0D02",
"2  c #530300",
"3  c #5B0300",
"4  c #530B01",
"5  c #5A0C01",
"6  c #431402",
"7  c #4C1301",
"8  c #491B05",
"9  c #551401",
"0  c #5C1201",
"q  c #541C03",
"w  c #5C1C02",
"e  c #521D09",
"r  c #640300",
"t  c #6A0400",
"y  c #640B01",
"u  c #6D0C00",
"i  c #730400",
"p  c #730C00",
"a  c #7C0C00",
"s  c #790000",
"d  c #611201",
"f  c #6B1401",
"g  c #631B02",
"h  c #6B1D01",
"j  c #731301",
"k  c #7A1301",
"l  c #761A01",
"z  c #7C1A01",
"x  c #4A240C",
"c  c #5A2608",
"v  c #583116",
"b  c #4A2711",
"n  c #642202",
"m  c #6B2B04",
"M  c #632D0A",
"N  c #682707",
"B  c #7B2402",
"V  c #7B2A03",
"C  c #742702",
"Z  c #68320C",
"A  c #743209",
"S  c #7B370A",
"D  c #683816",
"F  c #7B3D12",
"G  c #753A13",
"H  c #663F22",
"J  c #6C401D",
"K  c #79431A",
"L  c #7E400E",
"P  c #744826",
"I  c #734726",
"U  c #850D00",
"Y  c #8B0B01",
"T  c #9B0700",
"R  c #831A01",
"E  c #8B1D01",
"W  c #851300",
"Q  c #931A01",
"!  c #9A1A01",
"~  c #A71B00",
"^  c #B11900",
"/  c #832301",
"(  c #8C2401",
")  c #8C2B02",
"_  c #832A02",
"`  c #932401",
"'  c #9C2B01",
"]  c #962A01",
"[  c #833303",
"{  c #8B3503",
"}  c #873B09",
"|  c #933402",
" . c #923C0A",
".. c #973904",
"X. c #823E10",
"o. c #AC2C00",
"O. c #A72600",
"+. c #BB2C00",
"@. c #B62600",
"#. c #A33302",
"$. c #AD3301",
"%. c #A33C01",
"&. c #AC3D02",
"*. c #B33200",
"=. c #B93502",
"-. c #B43B01",
";. c #BC3C00",
":. c #C82D00",
">. c #C43C01",
",. c #C73600",
"<. c #D93C00",
"1. c #8D410A",
"2. c #92420B",
"3. c #9A480B",
"4. c #8A4715",
"5. c #9A4B10",
"6. c #944B15",
"7. c #9A531A",
"8. c #A94707",
"9. c #BA4301",
"0. c #B54A05",
"q. c #BC4B03",
"w. c #B34806",
"e. c #AA520C",
"r. c #B9540A",
"t. c #AB5C1C",
"y. c #A95716",
"u. c #B55914",
"i. c #A84E11",
"p. c #BA651B",
"a. c #865329",
"s. c #975826",
"d. c #885B35",
"f. c #925B30",
"g. c #9B6436",
"h. c #A7642B",
"j. c #B66928",
"k. c #A86B36",
"l. c #B66E31",
"z. c #B97337",
"x. c #AE723B",
"c. c #A45E24",
"v. c #C44A02",
"b. c #C94702",
"n. c #D84701",
"m. c #C85808",
"M. c #D75804",
"N. c #C35D12",
"B. c #E55A01",
"V. c #E94F01",
"C. c #D96409",
"Z. c #C86619",
"A. c #D76E16",
"S. c #D9741B",
"D. c #C9620C",
"F. c #E66905",
"G. c #F57C0C",
"H. c #E67A18",
"J. c #EC740C",
"K. c #C46E24",
"L. c #C97329",
"P. c #D77A27",
"I. c #C77B38",
"U. c #D57F32",
"Y. c #E47D22",
"T. c #916948",
"R. c #AE7647",
"E. c #EA811E",
"W. c #F78716",
"Q. c #FC9519",
"!. c #FEA01F",
"~. c #D8853A",
"^. c #DD832E",
"/. c #E78628",
"(. c #F89729",
"). c #E58B37",
"_. c #E99339",
"`. c #F69635",
"'. c #F08E29",
"]. c #FDA72D",
"[. c #FCA737",
"{. c #FEB737",
"}. c #FFB52F",
"|. c #FFC53E",
" X c #B48156",
".X c #B98C68",
"XX c #CA874B",
"oX c #D99558",
"OX c #CF8C50",
"+X c #E89545",
"@X c #F49C44",
"#X c #E69C55",
"$X c #F09E51",
"%X c #FDAC4B",
"&X c #F9A745",
"*X c #FEBB44",
"=X c #FEBB4D",
"-X c #FDB546",
";X c #ECA75A",
":X c #F6AB54",
">X c #FCB955",
",X c #EFA948",
"<X c #CF9665",
"1X c #DBA774",
"2X c #EAA666",
"3X c #F5AE66",
"4X c #FAB868",
"5X c #F7B979",
"6X c #EEB070",
"7X c #FEC647",
"8X c #FEC453",
"9X c #FFC25D",
"0X c #FFC95D",
"qX c #FFD859",
"wX c #FEC262",
"eX c #FECB64",
"rX c #FFC86C",
"tX c #FFD16D",
"yX c #FFD767",
"uX c #FEC878",
"iX c #FFDC74",
"pX c #FFD878",
"aX c #FFE37C",
"sX c #FFEC6B",
"dX c #FFE153",
"fX c #F3BB84",
"gX c #FDC587",
"hX c #FFD787",
"jX c #FEDA97",
"kX c #FFED8D",
"lX c #FFE985",
"zX c #FFE997",
"xX c #FFF59A",
"cX c #FFF386",
"vX c #FFF6A7",
"bX c #FFF7B3",
"nX c #FFE6A9",
"mX c #F5D0A4",
"MX c #FFF8C3",
"NX c #FEFFD0",
/* pixels */
"_.'.N.Y.%XrXtXeX[.].W.F.A.3.n * X           + & 5 a a U u u U ~ ;.) V t.R.5XjXhX4X^.} g c c S t.",
"@X'.-XwX4XiXkXiX].Q.C.-.w.8.{ 7 o X . . X + > @ & 2 3 r , > t U 2 & * N X.z.oX3X~.I.S N m 6.j.~.",
"`.[.pXxXxXcXxXxX7XG.v.E R %.P.j.h % @ o @ & % @ % & & & > + > 2 + % # X c R.R.l.A 0 1 4.a.S 1.p.",
"_.wXpXiXcXvXcX8X[.m.Q ] R ] S.E.| 2 5 , y 5 > % % & & @ & @ X . o O o x v d.R.XX4.A q G G F 7.5.",
"_.iX>X0XiXtX/.m.m.' j R z ' C.F.o.p a *.#.y , % % % X X o .     .   X J T.T..X<X<Xk.S 7 @ * X.1.",
"K.tXtX,X/.'.r.z ) _ / y u ( (.(.b.Q U O.E W z % @ % o .               O H .X.X.X.Xs.w @ # X 8 1.",
"L.:X+X^.P.S.u..._ h | f y ] A.(.m.a a t r t > > % o + .             . ; K T.T.T.R.s.q * # $ ; 4.",
"OXP./.+X_.u.u.3.{ [  .) z E C.H.#.j 2 > > & @ o X   .             . + 0 A f.d.P g.F 7 8 ; x ; P ",
"5.+X$X4X4XXX4.g [ [ f ) w.q.H./.&.z 3 % & & %     . X .         X . - o 9 K D P M Z 6 # : : 6 x ",
"m +X+X+X2XOX7.S C C  .| &.b.M.A.w.` f % & & @ X   . X           X . o < F g.g.d.J K ; o X . o = ",
"G l.t.y.7.6.6.l. .[ 3.z ` ;.9.$.U W W , , 3 , @ . . . .     X % 7 w g } L.oXR.k.g.a.x o     . o ",
"q w V { e.h 5 _ e...u f p -.v.' U p r 3 r i 3 3 & + @ % @ 5 2 2 %.D._.).p.7.c.c.F L 8       . . ",
"< w S 8.r.z / ..0.&.' r j $.M.O.W a p a Y T s s t t r 3 y ' 9.0.m.q./.'.u.{ 7.} > > * X       X ",
"c  .{ m.C.9.9.M.*.` v.' ` C.F.v.>.>.*.+.^ ^ ~ T T ^ ~ O.=.J.].C.9...| 8.2.B j 5 % < > @ @ @ @ $ ",
" .l l &.W.Q.b.O.Q U *.#.#.0.C.m.O.>.,.=.n.+.@.:.:.<.n.>.>.{.qXJ.0.{ 2.C 5 5 > @ @ > > % 5 5 h 5.",
"l j ( W #.N.Q r t r E &.r.8.D.v.=.=.*.n.>.@.@.@.+.O.,.=.b.qX-XA.u.2.m = > , @ o + + & , i a l  .",
"2 3 p p r j y 2 j f 3 q.r.e.N.N.q.#.-.9.$.O.o.~ Q Q -.-.v.[._.u.5.m 8 * + o o @ o o > r t t r > ",
"2 5 2 2 y 1 = d * + B { C { P.).0.m.%.` q.M.o.&.q.w.w.Z.;X@XL.y.c * + .     @ o . X @ 3 t , & % ",
"% % , > 0 < 8 v . X c  .4.j.:X_.D.H.A.q.F.J.*.0.P.).#X3XhX3Xl.F ; + .       . . .   X % > @ . o ",
"    @ > 0 G J - X - ; Z s.j.XXK.S.`.[.W.W.W./.@XuXvXvXjXfX2Xs.8 *   .                 + +       ",
"  o @ % g 4.v o   . O : q 7.L.K.P.>X*X(.[.*X=XwX4XzXbXbXgXI.c c q o o       .       . @ % .     ",
"  . . + N L 8 X X . # * 6 S U.^./.&X=X[.].*X-XtXpXvXzXvXnXj.g N c 6 + X   X X       o @ @ X     ",
"    X + q c ; X .   . X % V Z.Y.[.`.(.{.|.}.{.=XaXvXzXxXhX).t.[ n m 9 9 > o % @ @ + o & % .     ",
"  . + o o c c o .   . . o 2 z ` O.*.n.F.Q.|.qX0XsXiXiXpXwX@XP.5.3.1.w > < o 7 h & 4 d 5 > X     ",
"  X o @ X * * X         . @ p U i U =.J.W.[.=X>X0XiXlXaXaX`./.p.3.m m 1 $ + c w g V _ 0 & +     ",
"= & 5 < X . X             @ k i 3 3 U H.8X[.H.H.H./.:XpXaX[.P.).h.m K c 6 q c G 6.V V d g G M ; ",
"4.2.B >                   + , , , 5 k A.%X[.Y.w.%.' r.`.>XrX4X4X Xf.P c 6 8 @ 6 N = < y.P.;X6Xl.",
"L...B d + o . X           X % + + < 9 j.P.L.r.8.#.( u.@XrX;X#X6X<XR.d.K M M c 6 1 = < _ r./.%X).",
"P./ 8...& @ @ > @ .         . . @ < N I.p.e.8.w.w.w.~.6X2XI.k.<Xg.a.R.c.S S A q & * 1 5 z ' /.&X",
"%XS.C.N.B C , < 9 * o     .   . O e s.z.+XL.8.K.Z.8.l.oXXXR.k.x.s.1.OXh.} w 9 w 5 , 5 f R #./.0X",
"iX%X&X`.N.3.C 0 0 & < O .       o c s.y.j.~.K.+X#X~.oX1X<Xk.z.h.7.h.2Xh.m 7 n C C f d | ( #.m.>X",
"tX9XiX>XN.V 4 , , , * * o X . X % w } } I.~.U.#X5XgXgX6XfXfX1XXXh. X XK c M M S j.h d ..w.0.m.>X",
"0X-XeX,X) * * 2 f ..2.X.4.F 7 = 1 m  .u.;X4X2X6X#XXX2X5XgXMXMXfXv H d.v x 8 J s.7.7.5.3...m.W.=X",
"&X&XiX`._ > 1 f f k ( |  .4.[ } { | { L.4XuX5XgX6XOX3X4XgXMXmXR.H I P H J K a.h.h.~.} C 8.D.[.8X",
"*X=XcX8Xm.{ ( ( p r r u t f / | z ) 8.P.kXlXhXbXbXhX%X`.4X4XOXP P J d.T.d.k.h.k.L } g 1 V e.N.'.",
"8XyXdXqXA.q./ t 3 2 2 t R / j 2 2 5 / ^.iXzXzXzXuX$X/.w.u.i.i.A D v I I P s.6.6.q = 4 1 5 / &.(.",
"qXsXsX7XF.r.z r 3 > % & % = & @ $ % j K.>XxXzXzX>XS.0.| | h B u.m M v 6 M G 7.4.S 9 * @ % 1 ( H.",
"{.dXdXQ.F.m.E p 3 > o X       .   @ } u.~.3X:X,XA.r.w.%.) k y w.[ N G D G A l.j.5.[ * . + < y w.",
"].|.!.W.G.F.*.t r & X + .         O M 4.A S e.&.( | w.v.` ! Q U ` h 4.R.g.6.7.e.j.y.9 @ * & 1 ( ",
"E.].}.].W.M.O.r r & X + .           # x : 8 n z R %.v.M.>.+.@.! *.8.j.<X<Xh.3.e.e.t.F < % * 0 8.",
"J.W.7X7X].W.b.U p > o @ X             O X $ < h j 9.F.F.V.:.:.n.B.H._.fXgXOXu.r.e.K.A > @ = 9 i.",
"0.}.}.].G.Q.m.U y y 5 > @ O           . # + < | w.m.F.V.:.@.:.V.G.G.Y.3X6X2X3XOXP.u.y > @ + . & ",
"#.H.(.}.G.W.W.-.a l  .S c - . .         + % = d B m.F.>.+.^ <.V.J.M.q.K.#XfXuXuX+Xu.l 0 @ X + f ",
"l >.Q.{.[.G.W.'.@XL.i.l.K o O X .     # ; @ & @ & ' n.n.+.<.n.>.;.=.] | OXnXhXhX;Xi.0 * .   + 5 ",
") H.8X*X(.(.8XcXuX).t.l.K + x b # v b + 6 * & $ o , O.M.M.,.~ U Q R z  .oXbXNXbXzXt.w = X . X > ",
"u.'.'.`.`.[.sXlXhX+XK.L.c ; x b b x - + # ; o o @ 2 O.b.B.B.>.Q a U &.y.#XjXbXnXuX7.1 = o O   9 ",
"P.Y.m.D.`.eXeXeXlXtXY.u.m 8 O # 6     . X o . X & ( O.>.J.M.;.*.W ] `.+X3XgXzXvX3X5.7 = + . X m ",
"U.`.8.u.rXwX8XyXyX8XW./.u.w * # $     .       + 5 &.=.*.o.! ! O.9.m.A.K.2XnXbXbX;Xj.} A 7 & * 6."
};
