/* XPM */
static char *player_right_resized[] = {
/* columns rows colors chars-per-pixel */
"48 48 221 2 ",
"   c #050303",
".  c #0A0704",
"X  c #080809",
"o  c #130D09",
"O  c #1A120B",
"+  c #12110E",
"@  c #131311",
"#  c #1A1612",
"$  c #070B15",
"%  c #23150D",
"&  c #27190F",
"*  c #2A1C13",
"=  c #221B14",
"-  c #331F12",
";  c #2B261D",
":  c #3B2415",
">  c #362619",
",  c #091426",
"<  c #131D32",
"1  c #2F2A22",
"2  c #282624",
"3  c #322D23",
"4  c #362C2A",
"5  c #3B3328",
"6  c #343539",
"7  c #452B1A",
"8  c #492F1C",
"9  c #472A16",
"0  c #4D321E",
"q  c #47301D",
"w  c #51351E",
"e  c #493728",
"r  c #523620",
"t  c #563923",
"y  c #593B24",
"u  c #5C3E2A",
"i  c #533A2D",
"p  c #433C31",
"a  c #513F35",
"s  c #4E4738",
"d  c #55493A",
"f  c #5F422B",
"g  c #63432B",
"h  c #6A4834",
"j  c #79533B",
"k  c #724E37",
"l  c #3E3F45",
"z  c #122B6B",
"x  c #453E46",
"c  c #3F5478",
"v  c #434349",
"b  c #5B5343",
"n  c #4B4D53",
"m  c #545453",
"M  c #625A4B",
"N  c #665949",
"B  c #715845",
"V  c #6F5E55",
"C  c #776C57",
"Z  c #746B55",
"A  c #5B5D63",
"S  c #685D62",
"D  c #7B7260",
"F  c #6E707A",
"G  c #737378",
"H  c #6B676D",
"J  c #835B41",
"K  c #846E58",
"L  c #9A6C53",
"P  c #9A7359",
"I  c #8A6E55",
"U  c #A17356",
"Y  c #AC7B5D",
"T  c #A7775C",
"R  c #B07E5F",
"E  c #867862",
"W  c #947E64",
"Q  c #A97D63",
"!  c #B57D65",
"~  c #8D8268",
"^  c #9B856B",
"/  c #9C8A6F",
"(  c #95836B",
")  c #9B8D71",
"_  c #978670",
"`  c #9C9175",
"'  c #A6866A",
"]  c #A58B6F",
"[  c #AA8C6F",
"{  c #A68368",
"}  c #B3856A",
"|  c #BE856A",
" . c #BB896E",
".. c #B3886B",
"X. c #AD8D70",
"o. c #B38D71",
"O. c #BC8E72",
"+. c #A49376",
"@. c #AA9376",
"#. c #A99678",
"$. c #AD9B7D",
"%. c #A29779",
"&. c #B39274",
"*. c #BB9275",
"=. c #B69678",
"-. c #B29C7D",
";. c #BB997A",
":. c #C28469",
">. c #C4886E",
",. c #C48D71",
"<. c #CC8E71",
"1. c #C39275",
"2. c #CB9375",
"3. c #C59678",
"4. c #CE9779",
"5. c #C39C7C",
"6. c #CC9D7E",
"7. c #D39275",
"8. c #D49A7C",
"9. c #D1896E",
"0. c #1F4286",
"q. c #254F95",
"w. c #2B5FAD",
"e. c #2C66B7",
"r. c #2B60AD",
"t. c #7B7E88",
"y. c #817D81",
"u. c #7E818B",
"i. c #9B948B",
"p. c #868899",
"a. c #BF9F80",
"s. c #B09C82",
"d. c #ADA080",
"f. c #B4A483",
"g. c #BCA383",
"h. c #B6A987",
"j. c #BCA986",
"k. c #BBAD8A",
"l. c #B8A489",
"z. c #BEB08D",
"x. c #A5A29A",
"c. c #979BA7",
"v. c #9B9EAA",
"b. c #9B9CA5",
"n. c #8693AF",
"m. c #9FA3AF",
"M. c #A5A9B6",
"N. c #AAAEBB",
"B. c #A5A9B6",
"V. c #ACB0BE",
"C. c #A3A2A2",
"Z. c #C89F80",
"A. c #C3A383",
"S. c #CBA483",
"D. c #C0A987",
"F. c #C9A987",
"G. c #C5AD8A",
"H. c #CAAD8B",
"J. c #C8A28E",
"K. c #D3A483",
"L. c #D3AC8A",
"P. c #D9AC8A",
"I. c #DDA584",
"U. c #C3B28E",
"Y. c #CCB18D",
"T. c #D8B38F",
"R. c #C5B691",
"E. c #CCB592",
"W. c #C6B994",
"Q. c #CABA95",
"!. c #CEBE99",
"~. c #C8B89C",
"^. c #D3B792",
"/. c #DABA95",
"(. c #D5BF99",
"). c #DCBF99",
"_. c #D1B994",
"`. c #C3AE97",
"'. c #E5AB8A",
"]. c #E0B18D",
"[. c #E2BD97",
"{. c #E8B795",
"}. c #C9BCA5",
"|. c #C3BFBA",
" X c #E0BBA0",
".X c #CEC19A",
"XX c #D3C39C",
"oX c #DDC29B",
"OX c #DAC89F",
"+X c #E5C49D",
"@X c #E8C19A",
"#X c #D5C6A1",
"$X c #DCCBA3",
"%X c #D8C8A9",
"&X c #D9CCB1",
"*X c #D0C7B1",
"=X c #E2CDA4",
"-X c #E9CAA6",
";X c #E3D3AA",
":X c #EAD3A9",
">X c #EAD8AD",
",X c #E9D8B2",
"<X c #EDD0AB",
"1X c #EFE0B5",
"2X c #DED8C6",
"3X c #CBCED5",
"4X c #CFD1D9",
"5X c #CCCDD1",
"6X c #E2D9C4",
"7X c #E3D7C5",
"8X c #EBE5D6",
"9X c #EFE4CE",
"0X c #F3EFE6",
"qX c #F5EFE8",
"wX c #F5F2EC",
"eX c #F7F4EC",
"rX c #F9F6F2",
"tX c #FAF8F5",
"yX c #FFFFFF",
"uX c #F5F5F7",
"iX c #E2E3E8",
/* pixels */
"@X=XQ.U.(.XXW.R.Q.XXQ.U.k.R..X$.5.$XXXQ.Q.U.XXXX.XQ.Q..X!.U.P.2.! <.4.>XXXXX!.XXR.R.Q.!.j.T./.P.",
"XX(.Q.U.!.Q.U.Q..XU.U.k.f.G.-.{ H.>X.X.XQ.XXQ.R.U.Q.Q.U.Y.XXU. .7.:.'.$X.X#X!.XXXXQ.(.R.Q.OXXXXX",
"W.Q.Q.R.Q.Q.XXQ.k.U.$.-.&.2.*.2.:X;XXX.XQ.XXU.U.U.U.Q.U.Q._.U.@.K.).=XQ..XW.XX!..X.X#XQ.Q.W.W.Q.",
"R.Q.U.Q.Q.Q.XXk.X.;.5.O.*.2.<.@XOXXXQ.Q.Q.Q.R.Q.Q.OXQ.Q.U.U.U.+.*.D.j.j.#X#X$XXX!.#X!.k.k.$.k.Q.",
".XR.U.R.Q.W.Q.Q.5.'.=X^.XX>.].OXXXOXQ.Q.Q.Q.Q.XX.X.XQ.Q.W.R.R.j.<.5.oXL.A.H.XXk.X.j.#.[ [ A.;.Y.",
"D.U.U..XQ.Q.z.#.'  .XXXX.X5.>.[ =X;XQ.Q.R.z.W.U.G.U.k.U.Q.R.R.XXXX=XXXOX;XL.H.&.6.).Q.+X=X;XY.6.",
"6.;..Xh.g.z.( ! 8.7.oXXXOXQ.L.@X;X.X.Xh.@.o.5.z.XXQ..XXXR.Q.Q.Q.Q.Q.Q.XX!.Q.Q.(.;X,XQ.Q.Q.Q.Q.Q.",
".X6.S.@.6.} ;.@X+XoXQ.R.R.XX=X;X.XQ.k.[ K.-XL._.OXR.W.Y.R.Q.XXQ.Q.Q.Q..Xz.d.o.^.$X(.R.Q.Q.Q.Q.Q.",
"R..X5.2.8.P.+XOX$Xz.&.;.o.XXQ..XQ.XXk.5.>XOX@.OXXXG.-.U.W..X.XY.Q.Q.Q.Q.R.XXA.@X$XQ.R.Q.Q.R.Q.R.",
"R.k.-.,.>.5._.W.XXk.D.5.6.+.C C C E -.~ ~ ` 5.XX.Xk.G.XX.X.XR..XQ.W.Q.U.!.!.Q.:XXXQ.Q.XX(.W.R.W.",
"$.$.@.7.L.2.4. .Y..XOXoX$X3 . O o O C >   3 K ] -.] .XQ.XXQ.R.R.Q.Q.W.R.R.Q.OXOXQ.XX.XQ.Q.Q.Q.f.",
"1. .3.>.^.T.oX7.6.;.-..XU.3 * w w : o 7 *   . = ) oX.XR.XX.XR.R.Q.Q.U.W.OXXXQ.Q.Q.W.U.z.k.k.` P ",
"L.].8.5.=XOXW.H.oX6.| H.W.3   * f w : w q 9 w q ; ` .X.XXX.X.XOXXXW.W.Q.=X.X.XQ.U.Q.f./ -.#.;./.",
"Q.=XOXOX.Xf.U.XX$X$XH.2.p * : q w f w w w y t t : > ) .X.X5.k..XQ.z.W.Q.OXXXQ.U.U.f.] XX:XOX$XQ.",
"OXXXU.U.U..X+XXX.X.Xk.s & 9 w f w f f w y y y y y : 5 ~ .X$.=.U.Q.k.U.^.OXQ.U.W.f.&.;X$XQ.Q.Q.E.",
"XX.XQ.OXXXXX.X.XW.Q.)   : w f w w w w f w q q t y f = d z.[ &.8.XXW.Y./..X.XR.W.#.-X$XU.k.Q.Q.Q.",
"W.U.Q.Q.XXQ.Q.Q.Q.Q.` . : 0 r q 9 t t f 8 8 f g t t * e %.^.[.$X$X!.$X#X#XXXQ.h.@.$XW.U.h.Q.XXQ.",
"Q.U.W.W.Q.Q.Q.W.Q.Q.) . > 7 9 : q t w w 8 k R U t r 8 % 4 $X%X(.Q.$X$X(.XX!.W.h.[ /.Q.Y.Q.OXQ.W.",
".Xz.#.A.XX.XR.R.Q.Q.) . : w q 9 q t f 7 B T Y Q L u 9 % 3 Q.Q.!.Q.#X(.R.R.Q.k.^ 1.-X#XQ.W.Q.Q.Q.",
"z.R.*.>.S.R.k.W.W.R.` . : w w k J q w J g B A.&.i W B O 1 R.Q.Q.!.#XXXW.Q.k.^ A.T.;.^.Q.R.Q.!.!.",
"(..XOX@X! 1.o.D.(.Q.`   : 9 0 j T j w { f d E.s.* p > 5 ~ Q.Q.!.W.!.!.Q.(./ 3.;XQ./.-XXXXX!.XXQ.",
".Xz.#X.X;.'.L.-XXXQ.f.s & : 7 j } T k { K E `.l.N +   s Q.R.U.Q.&X6X,X2X2X}.%X!.XXXXW.XXXXXX#XR.",
"Q.$X,X;XXX:X;X;XQ.Q.XXk.5 * : f J Y } Y &.j.a.g.g.1 @ N G.W.Q.XX7XwXrXyXyXyX7X,X%XW.XXXX.XXXXX!.",
"XX;X;XXX.XR.k.f.d.U.XXU.$.5 & # > U U U T Q Q P L * b ..E..XQ.XXQ.U.*XrXyXyXyXyXeXXX#XXX.XQ..XXX",
"W.XXXX.X` @ # # + N Q.f.^ 3.d   # u g 0 S y.F e +   C /. .A.Q.!.R.Q.Q.#XwXyXyXyXyXtXtX&X!.Q.Q.Q.",
"U.z.+.$.E o F u.u.A ; 3 3.:Xd 4 _ Q g 0 H n.c.t.3 k a Z (.P.Z.Q.f.R.k.^ ,XrXyXyXyXyXyXwX}.f.f.#.",
"5.$.;.8.P @ m.N.V.p.A A d b b _ E.a.u r x G V.m.i L e b #XQ.S.3.*.D.' _.%X0XyXyXyXyXyXyX0X&Xg.S.",
"OX:XQ.XXG.b A c.N.B.N.m.n X C XX~.s.: 0 9 V V.m.0 u * b R.!.W.1.'.,.5.$XW.0XyXyXyXyXyXyXyX8X=XOX",
"XX!.U.$X!.R.p H c.N.M.M.B.v M W _ E = 7 p F n.u.x ,   d W.(.j.3.X.>.7.3.~.wXyXyXyXyXyXyXyX8XU.Q.",
"U.R.XXOXQ.#XW.5 A m.M.M.B.N.n + $ . - w c e.e.w.w.q.< s k.R.(.Q.3.8.>. XrXyXyXyXyXyXyXyXyX9XR.U.",
"Q.Q.Q.Q.!.W.W.k.v n B.m.B.B.v.c.F . . 7 c e.q.z 0.x t > 2 D k.W.W.K.{.rXyXyXyXyXyXyXyXyX9XQ.U.W.",
"Q.Q.Q.R.W.Q.Q.!.W M 2 6 v.N.N.B.v.t.t.2 , , , $ 4 r y - @ M D R.7XqXwXyXyXyXyXyXyXyXyXyX6XR.Q.U.",
"!.Q.Q.W.W.Q.XXz.{ Q Z Z l l m.iX3XB.B.F A A A m O p d D C.|.*X2XuXyXyXyXyXyXyXyXyXyXyX8X}.Q.!.Q.",
"XXQ.U.Q.Q.Q.Q.U.6.K.-X.Xd d ` 0XuX3X3X4X4X4X4X5XG i.x.5XyXyXyXyXyXyXyXyXyXyXyXyXyXyX8X#XQ.XXQ.!.",
"!.Q.R.Q.XXQ.Q.Q.#X;XOXQ.Q.f.$.9XwX0XyXyXyXyXyXyXyXyXyXyXyXyXyXyXyXyXyXyXyXyXyXrX0X8XXXW.Q.Q.W.Q.",
"Q.Q.Q.Q.Q.Q.Q.Q.XXQ.W.R.j.+.;XOXW.R.wXtXrXtXyXyXyXyXyXyXyXyXyXyXyXyXyXrXtXrXrX7XXXQ.!.Q.U.U.Q.U.",
"U.z.Q.Q.Q.Q.W.R.U.W.U.U.h.5.XXU.R.U.;X.X.X2XyXtXtXyXyXyXyXyXyXyXyXyXqX#XXX#X%XH.5.W..XQ.Q.XXW.Y.",
"U.Q.XXQ.Q.f./ g.[ [ $.$.-.{ 6.z.z.R.z.z..X~.`.J.J.-X-X-X-X*X~.%X&X}.*X.XR.W.W.Q.H.;.k.Q.U.W.Q.Q.",
"Q.XXh.f./ +.Y.OXOX).^.1.,.4.2.o.} F.f.G.OXR.^ 9.{.;X$X#X}.!.s.3.-...^.!.Q.R.Q.W.Q.G.S.W.z.R.U.Q.",
"Q.h.] } 1.>XOXXXOXXX.XOXoXoX;.>.7.T.;.8.U.) *.[.=X(.Q.W.R.G.U.Y.O.8.).(.W.Q.Q.R.Q.W.Y.6.g.-.U.U.",
"-.-.1.6.@X$Xz.W.U.k.U.Q.Q.W.-.| 7.oXQ.1.>.A.+X$XXX.X.XQ.Q.U.Q.+.6.=XU.Q.Q.R.Q.W.Q.U.W.oX:X!.;.5.",
"OX;X;XOXOXOXW.-.h.k.U.Q.Q.f.o.8.<.K.[ 6.:X$XOXXXXXOXQ.R.k.z.h...I.-.} ;.j.Q.U.U.Q.U.Q.Q.U.Q.XXOX",
"z.z.Q.W.W..Xk.[ >..XOXXXQ.+.1.XX .<.<.P..XQ.Q.U.XX.XR.R.z.Q.h.1.6.8.<.7.+X=XW.Q.U.j.$.$.k.U.U.z.",
"*.X.^ ;.h.#.-.U.4.P.OXQ.Q.U.T.F.Y.| 7.2.T.U.&.&.D.R.k.k.R.Q..X5.} >.6.+X;XQ..XQ.h.@.3. .A.U.h.^ ",
"/.+XL./...,.S.*.oXH.^.Q.R.U..X&.XXF.1.| <.}  .@X6.;.;.*.A.OX.X-.^.L. .=X.XW.Q.Q.h.| =X5.T.W.o.L.",
"R.XXh.-.*.P.G.2.OXj.oXXXR.U.Q.;.6..XL.].8.4.T..XU.6.>.2.+X.Xf.-.Y.$.L.=X.X$XOXXXz.6.Q.5.6.5.>.XX",
"3.-./ 6.8.+XXX+X.XR.OX.XW.U..X-.I.1XOX=XXXXX5.*.;.5.L.@X$XU.d.>.>.T /.OXQ.#X.XXXQ.Y.5.1.:.2.1.>.",
"| 5.;XOXXX=X.XQ.U.XXOXQ.U.U.R.g.T.;X.X.XXX.X+X:X+X;XOX.XW.-.&.>.K.7.8.;XXXXX$XXXQ..XOX^.1.:. .1."
};
