/* XPM */
static char *player_left_resized[] = {
/* columns rows colors chars-per-pixel */
"48 48 221 2 ",
"   c #050303",
".  c #0A0704",
"X  c #080809",
"o  c #130D09",
"O  c #1A120B",
"+  c #12110E",
"@  c #131311",
"#  c #1A1612",
"$  c #070B15",
"%  c #23150D",
"&  c #27190F",
"*  c #2A1C13",
"=  c #221B14",
"-  c #331F12",
";  c #2B261D",
":  c #3B2415",
">  c #362619",
",  c #091426",
"<  c #131D32",
"1  c #2F2A22",
"2  c #282624",
"3  c #322D23",
"4  c #362C2A",
"5  c #3B3328",
"6  c #343539",
"7  c #452B1A",
"8  c #492F1C",
"9  c #472A16",
"0  c #4D321E",
"q  c #47301D",
"w  c #51351E",
"e  c #493728",
"r  c #523620",
"t  c #563923",
"y  c #593B24",
"u  c #5C3E2A",
"i  c #533A2D",
"p  c #433C31",
"a  c #513F35",
"s  c #4E4738",
"d  c #55493A",
"f  c #5F422B",
"g  c #63432B",
"h  c #6A4834",
"j  c #79533B",
"k  c #724E37",
"l  c #3E3F45",
"z  c #122B6B",
"x  c #453E46",
"c  c #3F5478",
"v  c #434349",
"b  c #5B5343",
"n  c #4B4D53",
"m  c #545453",
"M  c #625A4B",
"N  c #665949",
"B  c #715845",
"V  c #6F5E55",
"C  c #776C57",
"Z  c #746B55",
"A  c #5B5D63",
"S  c #685D62",
"D  c #7B7260",
"F  c #6E707A",
"G  c #737378",
"H  c #6B676D",
"J  c #835B41",
"K  c #846E58",
"L  c #9A6C53",
"P  c #9A7359",
"I  c #8A6E55",
"U  c #A17356",
"Y  c #AC7B5D",
"T  c #A7775C",
"R  c #B07E5F",
"E  c #867862",
"W  c #947E64",
"Q  c #A97D63",
"!  c #B57D65",
"~  c #8D8268",
"^  c #9B856B",
"/  c #9C8A6F",
"(  c #95836B",
")  c #9B8D71",
"_  c #978670",
"`  c #9C9175",
"'  c #A6866A",
"]  c #A58B6F",
"[  c #AA8C6F",
"{  c #A68368",
"}  c #B3856A",
"|  c #BE856A",
" . c #BB896E",
".. c #B3886B",
"X. c #AD8D70",
"o. c #B38D71",
"O. c #BC8E72",
"+. c #A49376",
"@. c #AA9376",
"#. c #A99678",
"$. c #AD9B7D",
"%. c #A29779",
"&. c #B39274",
"*. c #BB9275",
"=. c #B69678",
"-. c #B29C7D",
";. c #BB997A",
":. c #C28469",
">. c #C4886E",
",. c #C48D71",
"<. c #CC8E71",
"1. c #C39275",
"2. c #CB9375",
"3. c #C59678",
"4. c #CE9779",
"5. c #C39C7C",
"6. c #CC9D7E",
"7. c #D39275",
"8. c #D49A7C",
"9. c #D1896E",
"0. c #1F4286",
"q. c #254F95",
"w. c #2B5FAD",
"e. c #2C66B7",
"r. c #2B60AD",
"t. c #7B7E88",
"y. c #817D81",
"u. c #7E818B",
"i. c #9B948B",
"p. c #868899",
"a. c #BF9F80",
"s. c #B09C82",
"d. c #ADA080",
"f. c #B4A483",
"g. c #BCA383",
"h. c #B6A987",
"j. c #BCA986",
"k. c #BBAD8A",
"l. c #B8A489",
"z. c #BEB08D",
"x. c #A5A29A",
"c. c #979BA7",
"v. c #9B9EAA",
"b. c #9B9CA5",
"n. c #8693AF",
"m. c #9FA3AF",
"M. c #A5A9B6",
"N. c #AAAEBB",
"B. c #A5A9B6",
"V. c #ACB0BE",
"C. c #A3A2A2",
"Z. c #C89F80",
"A. c #C3A383",
"S. c #CBA483",
"D. c #C0A987",
"F. c #C9A987",
"G. c #C5AD8A",
"H. c #CAAD8B",
"J. c #C8A28E",
"K. c #D3A483",
"L. c #D3AC8A",
"P. c #D9AC8A",
"I. c #DDA584",
"U. c #C3B28E",
"Y. c #CCB18D",
"T. c #D8B38F",
"R. c #C5B691",
"E. c #CCB592",
"W. c #C6B994",
"Q. c #CABA95",
"!. c #CEBE99",
"~. c #C8B89C",
"^. c #D3B792",
"/. c #DABA95",
"(. c #D5BF99",
"). c #DCBF99",
"_. c #D1B994",
"`. c #C3AE97",
"'. c #E5AB8A",
"]. c #E0B18D",
"[. c #E2BD97",
"{. c #E8B795",
"}. c #C9BCA5",
"|. c #C3BFBA",
" X c #E0BBA0",
".X c #CEC19A",
"XX c #D3C39C",
"oX c #DDC29B",
"OX c #DAC89F",
"+X c #E5C49D",
"@X c #E8C19A",
"#X c #D5C6A1",
"$X c #DCCBA3",
"%X c #D8C8A9",
"&X c #D9CCB1",
"*X c #D0C7B1",
"=X c #E2CDA4",
"-X c #E9CAA6",
";X c #E3D3AA",
":X c #EAD3A9",
">X c #EAD8AD",
",X c #E9D8B2",
"<X c #EDD0AB",
"1X c #EFE0B5",
"2X c #DED8C6",
"3X c #CBCED5",
"4X c #CFD1D9",
"5X c #CCCDD1",
"6X c #E2D9C4",
"7X c #E3D7C5",
"8X c #EBE5D6",
"9X c #EFE4CE",
"0X c #F3EFE6",
"qX c #F5EFE8",
"wX c #F5F2EC",
"eX c #F7F4EC",
"rX c #F9F6F2",
"tX c #FAF8F5",
"yX c #FFFFFF",
"uX c #F5F5F7",
"iX c #E2E3E8",
/* pixels */
"P./.T.D.!.Q.R.Q.XX.XXXOX;X6.,.! <.P.U.(.Q..XQ..XoX.XU.Q.Q..X=XA.$..XU.k.U..XXX.XU.R.XXXXz..XOXoX",
"XX!.OXQ.Q.!.R.XX.X.XOX.X$X'.:.7.| R.XXR.U.Q.Q.U.R.Q.XXQ..X!.>XK.' -.U.-.k.U.U..X.XD..XXX5..X.XOX",
"E.Q.R.Q.W.$X!.XX.XXXU..XQ.=XoXK.X.R.Q.R.R.Q.U.U.U.U.XXQ..XXX;X:X2.O.2.=.-.$.U.k.E..XU..XU..X.X.X",
"Q.k.$.k.k.W.$XQ.XX$XOXOXj.j.j.*.+.R.U.R.Q.R.OX_.Q.R.Q.Q.W.W.OX$X@X<.2. .*.5.;.X.k.XX.XE..Xz.z.W.",
"U.;.A.[ X.#.j.X.k.OXG.j.L.oX5.<.f.R.R.R.Q.Q.Q.XXXXQ.Q.Q.Q.Q.OXXXOXT.>.XX_.=X'.5..X.XR..XU.k..X.X",
"S.E.;X=X+XE.oX6.&.F.L.=XOXXX=XXXOXR.Q.Q.U.k.U.U.R.W.k.R.Q.Q.;X=X..,.5.XXXXXX .' %.5..X.X.XU.W.5.",
"E.Q.Q.Q.W.!.>X:XXXQ.Q..XXXQ.R..XQ.Q.Q.R.XXQ.Q.XXk.a.o.@.k.Q.Q.;X@XF._.$XXXXX7.8.} ^ k.5.-.OX-.6.",
"Q.Q.Q.Q.Q.R.!.$X^.o.$.G..XQ.Q.R.Q.(.Q.R.U.Q.Q.XX_.L.-XK.X.k.!..X;X;XXXR.R.R.OX+X@X;.' 6.&.6.6..X",
"R.Q.R.Q.Q.R.Q.;X@X6.XXW.W..XQ.Q.R..X.XU.z.h.U.OX$X@.#X1X;.z..XQ..XW..Xo.;.&.U.;XOX+XP.8.<.g..XW.",
"Q.R.Q.Q.XXQ.E.XX;XQ..X.XU.Q.E.Q..XQ._.XXXXU.h..X(.Z.` E W -.E C D C +.8.5.5.-.XXW.^.5.>.,.$.k.W.",
"f.Q.Q.Q.E..X.XQ.XXOXQ.U.R.W.Q.E.R.R._.XXQ..X[ -.' I 4   > C O o O . 1 =XOX$X.XY. .4.2.L.7.&.$.$.",
"P ) k.k.U.U.R..X.X.XXXOXR.U..XQ.R.R.R..XR..X/.` # . . * q o > w w * 1 z..X5.$.6.7.)./.Q.>.3. .>.",
"/.=.@.-.) j.Q.R.Q..X.X=XQ.R.W..XOX.X_.XX.X.X+.# q r : q w : t y *   1 W.H.| F.oXH.W.XX$X3.K.'.L.",
".X$X$X:XoX/ -.U.U.E..XOXQ.R.z..XQ.U.k..X.X) ; q t y y w y r y y q : ; e 2.Y.$X+XOXU.j..X$X$X;XE.",
"R.Q.Q.Q.$X:X@.f.R.U..XOX^.z.k.W.U.=.$.XX~ 5 > y t y y y r y y y y y 9 % s h..XQ.XX=X.XU.U.U.XXOX",
"Q.Q.R.z.z.$X-X#.W.W..X.X/.E.U.OX8...] U.d % f y r 0 0 w y t y 0 w f r : . ) Q.R..XE..XXXOXQ.Q.XX",
"Q.XXQ.h.U.E.$X@.h.Q.XXOX#X$X!.$X=XoX_.%.p * t r h u 7 7 y t t 7 0 r 0 : . ` Q.Q.Q.Q.E..XQ.~.U.Q.",
"R..XOXQ.R.Q./.[ j.R.Q.XXXX$X$XQ..XOX$X5 % 8 w t U Y k r t t y 7 : 9 7 : . ` .XQ.Q.Q.Q.Q.W.R.U.E.",
"Q.Q.Q.R.Q.OX-X*.^ z.Q.R.R.XX#XQ..X.X.X1 % 7 u L Y Q Y j 7 y t 7 : q w : . ) Q.Q.R.R.XXXXj.#.z.XX",
"XXQ.Q.R.Q.^.3.T.A.( k.Q.R.XX$XQ.Q.Q.W.; O j W i @.A.B g J t 7 J k w w : . ) R.R.W.h.R.S.,.O.W.k.",
"Q..XQ.XXOX=X/.W.:X1./ !.E.Q..XQ..XE.W.~ 5 3 p * s.E.d d ' 0 j T j w q : . ` Q..XD.&.1.! /.OX!.!.",
"R.$XOXXX.XR..XOXXX$X*X&X6X6X6X&XQ.U.U.E.s   + N a.`.E K ' j T ! j 9 : & s -.Q.XX-XL.'.;.OXOXU..X",
"Q.XX.X.XOXXXR.%X,X7XyXyXyXwXwX7XOXQ.R.z.M # 3 g.a.a.A.*.Y R Y I f - * 5 z.XX.XR.;X;X>XOX$X>X$XQ.",
"XX!.Q.!.XX%X}.0XyXyXyXyXuX%XR.!..XQ..X^...d * L P Q Q T U U U * % & 5 $.U.XXU.$.f.h.R..XOX;X;X.X",
"Q.Q.Q.(.&XrXtXyXyXyXyXwX}.!.R.R.Q.E.A.O./.K   O q F y.H r u g O   b =.^ f.Q.N + @ @ @ ` .XXXXXW.",
"#.f.f.}.wXyXyXyXyXyXrX;X/ k.R.f.Q.A.P.(.Z a k > y.c.n.S 0 g W ] 5 d <X3.3 ; A u.u.F + E $.%.z.U.",
"Z.g.&XwXyXyXyXyXyXyX0X=X^.] D.;.3.F.Q.XXb e L i v.N.G a r u l.~._ b b d A A p.N.V.m.@ L 8.=.$.5.",
"$X=X8XyXyXyXyXyXyXyX0XW.#X6.<.I.1.E.~.R.b = u e b.V.V 8 8 1 a.E.(.Z X n m.V.N.N.c.A b G.OX_.:X+X",
"Q.W.8XyXyXyXyXyXyXyXwX~.3.4.>.X.6.D.XXR.d X , x n.n.H a 7 % E W ( m v B.B.B.B.b.H s z..XOXk..X.X",
"R.W.6XtXyXyXyXyXyXyXyXrX[.<.7.3.U.XXU.z.a < q.w.w.e.e.q.0 - X $ @ n N.M.B.B.m.A 5 W.XX.XOX.XQ.U.",
"R.R.(.9XyXyXyXyXyXyXyXyXrX{.K.W.Q.k.D 2 - i l 0.z q.e.A 7 . X t.c.v.M.M.M.M.n s h.Q.R..X.X.XQ.Q.",
"R.Q.R.6XyXyXyXyXyXyXyXyXyXwXeX6XU.D M @ - y e 6 $ , , $ 2 t.t.c.M.M.N.c.6 2 N ~ Q.Q.Q.Q.Y.Q.Q..X",
"R.!.Q.#X8XyXyXyXyXyXyXyXyXyXyXeX2X*X|.m.Z d e O m A A A F M.B.3XiXb.v v Z Z Q { k.(.!.R.R.R.Q.Q.",
"!.(..XQ.#X8XyXyXyXyXyXyXyXyXyXyXyXyXyXyX5Xx.i.G 5X4X4X4X3X3X3XuXwXi.d d Q.=XK.6.z.Q.Q.Q.Q.R.Q.$X",
"Q.R.Q.W.W.!.8X0XrXyXyXyXyXyXyXyXyXyXyXyXyXyXyXyXyXyXyXyXyXyX0XwX1X$.h..XQ.OX;X#XQ.Q..X.XQ.R.Q.!.",
"R.R.R.R.Q.!.!.(.7XrXrXrXrXyXyXyXyXyXyXyXyXyXyXyXyXyXtXrXrXwXW.Q.$X;X%.-.R.Q.Q.XX!.Q.Q.Q.Q.Q.Q.R.",
"R.W.XXQ.Q.!.R.A.H.%X#X!.#X0XyXyXyXyXyXyXyXyXyXyXyXyX2X.X.X&Xz.U.R.XXg.h.U.U.R.k.Q.R.Q.Q.Q.Q.k.E.",
"E.Q.R.R.Q.k.;.H.Q.R.~.R.XX%X.X&X X~.&X&X-X=X-XK.J.`.~.Q.U.U.W.z.U.A.Q =.$.$.[ @.-./ h.Q.Q.XXQ.U.",
"R.R.R.z.R.S.Y.Q.Q.Q.R.!.(.E.X.s.3.g._.XX(.&X;X{.9.W R.OXH.$.F.} O.2.4.<.3.E./.oX+XU.+./ d.k.XXQ.",
"R.G.-.j.Z.H.W.R.R.Q.W.W.(.).8.,.U.R.U.U.U.~..XOX[.*.+.U.8.5.T.7.| ;.).oX$X!.$XOXOXOX>X1.} ] h.R.",
";.;._.:XoXR.Q.R.R.~.E.R.Q.U.+X5.%.Q.U.W..X.X.X.X$X+X6.1.>.Q.oX7.| -.W.Q.R.U.k.U.W.R.$X[.6.O.-.-.",
"OXXXQ.R.Q.Q.U.Q.E.U.Q.k.;...-.I...k.U.k.U._.OXXX.X$X$X-X6.#.8.<.8.&.d.Q.Q.E.k.h.$.R.OX$X$X;X;XOX",
"z.U.U.h.$.$.z.U.Q.U.=X+X7.<.8.K.2.-..Xz.R.U..XOXz..X.X.XP.<.<. .XX,.+.Q.XXOX.X .] h.Q.R.R.Q.U.z.",
"^ k.U.D. .3.X.h.Q..XQ.;X+X6.>.} -..XQ.R.k.k.U.D.&.@.z.T.4.2.| Y.F.T.U.Q.Q.OXI.8.z.j.$.k.;.^ X.*.",
"T...z.].;.-X .h.Q.Q.R..X=X .L./.-.XXOX5.=.;.;.6.@XO.} ,.} ,.F.XX=..XU.Q.Q.E.Y.oXO.S.1.../.Y.+X[.",
".X,.5.K.5.E.6.k.XX$X$X.X+XY.$.E.$.k..X+X2.>.6.G..XP.4.8.{.L..X6.;.Q.U.R.XX).j.OX4.F.P.=.-.h.XXR.",
" .<.3.>.*.5.U.Q.XX.XXXQ.OX/.T >. .-.U.$X+XL.5.;.O.3.XXOX=XXX1XI.-..XU.W.XXOXQ.Q.#XOX+X8.6./ f.1.",
"2. .| 1.^.$X(.W.#X$XOX.X;X8.7.K.,.o.-.Q..XOX>X+X:X+X.XXX.XXX;XT.-.R.z.U.Q.OXXXR.Q.Q.$X/.OX=X5.:."
};
