/* XPM */
static char *Stone_19_128x128_resized[] = {
/* columns rows colors chars-per-pixel */
"48 48 135 2 ",
"   c #96765E",
".  c #AC735C",
"X  c #8F7F65",
"o  c #9B7E65",
"O  c #A07F66",
"+  c #AC7D63",
"@  c #B27C64",
"#  c #B97F66",
"$  c #978367",
"%  c #9C8167",
"&  c #968469",
"*  c #9A866B",
"=  c #9C8B6F",
"-  c #9E8F72",
";  c #A38167",
":  c #A4856B",
">  c #AB8469",
",  c #A38A6E",
"<  c #AA8A6F",
"1  c #B3856A",
"2  c #BC856A",
"3  c #B28A6E",
"4  c #BB8A6E",
"5  c #A48D70",
"6  c #AC8D71",
"7  c #B48D71",
"8  c #BD8E71",
"9  c #A49375",
"0  c #AB9376",
"q  c #A69679",
"w  c #AB9679",
"e  c #AD9C7C",
"r  c #B39375",
"t  c #BB9275",
"y  c #B59678",
"u  c #BC9779",
"i  c #B29C7D",
"p  c #BB9B7C",
"a  c #BAA07F",
"s  c #C2846A",
"d  c #C9876C",
"f  c #C4896E",
"g  c #C98A6E",
"h  c #D1896E",
"j  c #C38D71",
"k  c #CB8D71",
"l  c #D28F73",
"z  c #C49375",
"x  c #CC9375",
"c  c #C49678",
"v  c #CD9679",
"b  c #C49C7C",
"n  c #CC9C7D",
"m  c #D39275",
"M  c #D59678",
"N  c #D99578",
"B  c #D49B7D",
"V  c #DA9B7C",
"C  c #C5A07F",
"Z  c #CCA07F",
"A  c #ADA281",
"S  c #B4A483",
"D  c #BBA483",
"F  c #B6A886",
"G  c #BBA986",
"H  c #B6AB88",
"J  c #BBAD8A",
"K  c #BEB18D",
"L  c #BFB390",
"P  c #C79F80",
"I  c #CA9F80",
"U  c #D29F81",
"Y  c #E09F80",
"T  c #C3A383",
"R  c #CBA483",
"E  c #C1A887",
"W  c #C8A987",
"Q  c #C3AD8A",
"!  c #CBAD8A",
"~  c #D3A483",
"^  c #DBA484",
"/  c #D3A987",
"(  c #DAA887",
")  c #D3AC8A",
"_  c #D9AC89",
"`  c #C2B38E",
"'  c #CCB28E",
"]  c #D4B28F",
"[  c #DDB28E",
"{  c #C5B691",
"}  c #CAB692",
"|  c #C6B893",
" . c #CBBB95",
".. c #C7BD98",
"X. c #CEBE99",
"o. c #D2B691",
"O. c #DAB692",
"+. c #D4BA94",
"@. c #DABB95",
"#. c #D2BF99",
"$. c #DBBE98",
"%. c #E2AB89",
"&. c #E9AA88",
"*. c #E2B28E",
"=. c #E4B591",
"-. c #E2BB95",
";. c #ECBB96",
":. c #E2BE98",
">. c #E8BF99",
",. c #C7C29B",
"<. c #CEC09A",
"1. c #D3C39C",
"2. c #DBC49C",
"3. c #D6C89F",
"4. c #DAC89F",
"5. c #E3C49D",
"6. c #EAC29B",
"7. c #D6C6A0",
"8. c #D9C7A0",
"9. c #D6C8A1",
"0. c #DBCBA3",
"q. c #DECFA8",
"w. c #DDD0A7",
"e. c #E6C7A0",
"r. c #E3CDA4",
"t. c #EACCA3",
"y. c #F1CFA6",
"u. c #E3D1A7",
"i. c #E3D3AA",
"p. c #EBD4AA",
"a. c #E7D8AC",
"s. c #EBD9AE",
"d. c #F0D5AB",
"f. c #ECDBB1",
"g. c #F2E1B6",
/* pixels */
"5.e. .` 1.1.} {  .4. .` J { ,.e E w.<.} | { #.1.#. .X.#. .` _ x # k I p.7.7.X.1.| {  .X.G [ =.( ",
"1.<. .` <. .`  .<.{ ` F a Q a ; / a.<.<. .1. .{  .{  .`  .1.K 2 l s %.0.X.7.X.1.X. .X. .X.7.X.7.",
" . . .` <. .<.} H L e S r x t x p.u.1.<. .1.{ ` J { { { |  .` r U 2.r. .X.{ 1...X.X.7.| } {  .| ",
"|  .`  .}  .1.K 7 t C j t z l @.w.1. .}  .| `  .#.8. .{ ` ` { 9 t E G G 7.7.q.1...q...J F A J  .",
",. .Q ' } { <.{ C &.u.} @.4 *.3.1.1. .{  . ...1.1. . . . .` | D k P $./ P ! 7.J 3 E A O < I P Q ",
"E K ` 1. .<.K q : 8 <.1.<.C f 1 u.i. .X.{ J { { ` ` K `  .| { 1.1.u.1.7.q.) W r I $.' e.q.i.' I ",
"Z p 1.F F K $ . M M 1.3.4.<.) 5.u.X...H 0 7 P Q 1.}  .1.}  . . .X.|  .7.X... .#.p.f.X.X... .| } ",
"<.Z W 6 Z > C 6.6.@.}  .{ <.w.i.1.X.J 6 ~ t.! o.3. . .` |  .1. .| } X.X.K A 7 +.q...` | X. . . .",
"{  .C k B V u.4.w.K r u 7 1. .}  .1.J p f.9.0 2.1.` a K | <. . . . .X.} { <.T 6.w. .' <. .{  .| ",
"{ J e j d C <.{ <.G C C B p.1. . ...D ) f. .T 1.<.G ` <.<.<. . . .{  .` <.X.} p.1.|  .1.<.{ | | ",
"e e r m Z B x 4 ' <.4.2.u.3.{ <.#.L D O.S i 6 ) a < <. .2. .{  . . . .{ {  .7.7. .<. . . . . .S ",
"z 4 c j ' +.5.m B y a ,.{ ` ` ` L D / -.} #.E $.K 2.+.{ 1.{ { {  ...` { 7.7.X. . .| ` ` J J -   ",
") %.B C 5.3.{ ! 2.Z 2 ) ,. .<.4.1.8.8.u.u.9. . .1.<.<.<.1.<.<.1.1. .{ ..0.1.X. .{  .F = a 0 y +.",
",.u.0.4.<.F ` 2.w.0.! B ' 1.3.1. .{ X.1.3. .{ <.<.1.2.<.<.J `  .X.Q {  .8.<. .{ K S = 2.p.4.0. .",
"2.1.Q ` { <.0.1.<.<.1.Q Z 4.J J  .{ 1.1.1. .3.1.+. .| <.<.e y '  .H ` o.8.1.` { S r u.0. . . . .",
"1.<.,.2.1.1.<. .{ | <.K C r.K 1.1. . .7.4.<.{ {  .{ | 1.K < 7 Z #.{ | +.1. .| | 0 t.0.` J {  . .",
"{ {  . .#. . .X.|  .1.<.E 2.X.1.X. .{ { .. . . .{  .{ ` { o.$.r.4.1.0.3.4.1. .J 0 0.{ ` F } 1. .",
" .{ { {  . . . . .X. .| S o...{ {  .J S 7.{ `  .{ `  .{ 1.0.9.X. .3.w.1.1. .| H < O.<.{ | 0.#.{ ",
"X.L q E <.#.{ {  . . .X.D ! 1.`  .#.{ D +.{  .#. .{  .`  .#... . .4.1.{ `  .K * 8 t.3. .{  . .X.",
"J { t d W { H  .{ { X.0.i D <.{ #.{ H 3 r.{  .7.{ { G  .#. ...X.<.3.1.{  .J * Z *.u +. .{  .X.X.",
"X.X.8.2.@ z 7 G <. .#. .A z o.9.X.| J o.+. .0. .X.7.X. . . . . .' 1.<.' <.= c a.,.+.u.3.<.#.1. .",
"<.` 7.7.u %.) t.3. . .{ { r e.0. .....#.! 0.7.X.{ X.X.{  . .{  . . .} ,.{ 5 @.<.2.<.} 1.1.3.7.| ",
"..0.f.0.7.p.i.q.{  .1.| D n 0.1. . .#.#.`  . .X. ...{ S J  . .7.{ <.<.<.} , a 4.<.{ 1.1.<.1.1. .",
"1.u.i.7.7.0.X. .{ X.1.{ S b 8.1. . .7.#.#.#.X.8.X.S , 1 o.<. .#.,.| | <.i : 6.4. . .1.1.#. . .1.",
"} 7.7.X.| { X. . .#. .F % R r.{  .{  . . ...7.0.{ o +.@.8 T | X.| | <.` &  .a.<. . . .1.<. . . .",
"` J 9 0 A r A `  .` q 0 ~ y.` | X. . . . .X. .A * #.g.X.#._ P ..a ` F = 2.u.{  .{ ` K e a S S 0 ",
"P A t U k I U I 3.F < d.0.3.{ 4. . .#. .#.#.- w u.a.X.7.7...T c a W : +.r.<.{ { } <.i t ' Q D n ",
"8.i. .2.e.u.q.O.! 9 o.0. .` J | X. ...H { S * s.q.X...8.{ .. .k V k b 4.| `  .{ K K 0 r.w.8.u.4.",
"1.X.L 8.X.X.7.7.1.u.8.1. .Q  .8.D 0 r 0 r 5  .7.7.7.1. .{ 7.E c 6 g x c a {  .K w : 2.4.|  .'  .",
"`  .1.7. .2.X.|  . . . . .1.8. .; / _ t.e.r. .X.8.7.X. . . .#. .x x f ( x 1.{ - p p.4. .1. .{ ` ",
" . .X. .X.{ | ` { J {  .X.K S & o.a.q.7. .{ X.0.7.X.X...{ { { { } / V Z a ( 0 a 5.<. . .3. .` | ",
" . .} { }  .X.X.5 Q <. .| S 3 ! u. . .{ { { X.7.X.1.#.{ | Q { X.<.2.2.n Z 1.2.w.<.1.} <.1.`  .{ ",
"X. .| { { X.#.J O x `  .` F n t. . . .#. . . . . . .X.X.<.1.1. . .<. . .Z E <.,.<.<.` <.} ,.<.' ",
"7. .| }  . ...{ P ^ t.3.` { y O.3. .3. . .3.1. .1.X.{  .` `  .1. . . .` 0 n 0.{  .` ` <.} 1.<.<.",
"X.} {  .#.X. . .7.u.8. . .H w p.X.`  .{  .1. .{ { X.{ J 0 r W <.`  . .F Q B Z ` <. . .} {  .{  .",
" .|  . . . . . .#... .{ S q r.0. .J {  . . .H J { { { 9 3 5.) '  .`  .` <.<.! C <.o.<.} ` { { ` ",
"{ K .... . .{ { K | ` ` F D 1.Q ` ` 8.|  .{ H Q D i 9 . *.0.` C 4.`  .+. .<.1.W C } <.}  .1.} { ",
"{ } X.X. .S = S 6 < e i i + P { { | ` ` <.L r 1 2 O.O.=.2. .S ! <.J  .<.{ } {  .! u E <.' { ,.} ",
" .1.J S - 9 { 5.2.$.' c z M k 7 > W S Q 4.{ o h ;.u.q.1.1. .a c u 3 o.<. .{  . .,.Q Z ,.K ` ` } ",
"| S , @ j s.8.7.3.3.1.4.$.#.b 2 m [ p B ` - 7 >.e. . .{ ` ` ` ' f B 2.<.{  . .{ ` ,.` Z a a K { ",
"e a j Z 5.r.` ,.` J `  . . .e 2 N :. .j j T 5.0.1.1.<.<.| ` | 0 C r.Q  . .`  .{ } { { 5.p.' a a ",
"2.u.u.4.4.1.{ e D K '  . .A 7 B k ~ 0 n t.0.9.1.<.1. .{ K L a > ^ a 1 u G  .{ | <.` { ,.{ ,.1.2.",
"K ` ,.{ { ,.J 5 8 <.4.1. .5 z 1.2 k g _ 1. . .{ 3.<.{ { K <.F z Z M l m 5.w.`  .Q J e w a K ` Q ",
"t 6 ; a a w a Q v ( 4. . .` ] ! } s x x ] { 0 7 E ` J F {  .,.a @ f Z 5.u. .<. .a 0 C 2 C ,.a % ",
"2.5.] O.3 x Z t 2.] }  . .` <.t 1.W z 2 g 1 4 6.Z p p t C 3.<.a @.) 4 u.<.}  . .a 4 t.a 2.` 3 ] ",
"` 1.F a t ( ! x 4.a 2.3.` {  .p b 1./ =.B v [ ,.Q Z f x 5.<.F a ' e ] w.<.4.3.1.K x o.a Z C f 1.",
"c a & Z x 5.1.2.<.{ 4.<. .` ,.y ^ f.3.u.2.1.c t c C / 5.w.K a 4 f . O.3. .4.1.1.,.' Z z s k k 4 ",
"s C u.1.2.r.<.<.` 1.3.} ` K } F ] a.1. .1.<.r.s.5.u.4.<. .e 7 f ~ x V u.<.3.1.2.,.<.4.o.z 2 4 k "
};
