/* XPM */
static char *Brick_15_128x128_resized[] = {
/* columns rows colors chars-per-pixel */
"48 48 61 1 ",
"  c #0E0A08",
". c #150E0C",
"X c #190F0C",
"o c #17100D",
"O c #1C110E",
"+ c #1D1310",
"@ c #21130F",
"# c #231511",
"$ c #291711",
"% c #241915",
"& c #291A14",
"* c #271D19",
"= c #2C1E19",
"- c #311D17",
"; c #321F18",
": c #2B201C",
"> c #34211B",
", c #3B241C",
"< c #3D2921",
"1 c #41261D",
"2 c #43281F",
"3 c #4A291E",
"4 c #442B22",
"5 c #4A2B21",
"6 c #542F23",
"7 c #46332D",
"8 c #4D352D",
"9 c #53362C",
"0 c #5B372B",
"q c #56382E",
"w c #5B3A2E",
"e c #4A3731",
"r c #4E3932",
"t c #553B32",
"y c #5C3D32",
"u c #633B2E",
"i c #6B3E2F",
"p c #703F2F",
"a c #633E32",
"s c #6A3F31",
"d c #5E4036",
"f c #5C4239",
"g c #72402F",
"h c #644135",
"j c #6C4234",
"k c #654439",
"l c #6C4639",
"z c #6D483C",
"x c #734435",
"c c #7A4635",
"v c #7D4837",
"b c #724738",
"n c #784738",
"m c #75493A",
"M c #7B4A3A",
"N c #824937",
"B c #834C3A",
"V c #894E3A",
"C c #86503E",
"Z c #8C503D",
"A c #93533E",
/* pixels */
"%,1,;361,<>>21,><,4>,,2,,,>:&%>>=,>,4,,,,113112&",
">jMBAVAvjjkhbxmkthjijjbnzjhtqdjjawhjbxcxMcvBxvB&",
";hajnxBjajw9uMMhw0wjj0bjjjuw0hjjjMMkkkMnxcxgcVb&",
">juhjnBsjhubMnfq0uuuxxjxhbhujujblmzty8yt0jMxMvi@",
",jjMbztjjjjbjhq40nBVBcjjjzhMuunjcbkt7788allhjxj@",
"1xbMj88lzkbbauuxcvvNBjjxbhuuiBccBbt46qywhytaunM$",
",lnBzkddtykjwaxjvnnvxxxcB00uBNjxxbwsCbyyhjtwaMM$",
">abbztt8dtqwwhljbjcxnccnvu0xvjjcjasbnywyabjhsMx&",
">hxjhdddyybnljjjjuxnxxnvMhunbccnMjwsxiusbbjjjcwO",
">wjjlyhydhjjjhjjhbncjbCzjhjMxxnMijuiNcNMMlysxxaO",
">bjjathtaaahbjjjjbjnvBjqwdhCijMjxBaNBxNMnhyhbxx@",
"1mMjyhhdwajxxbbbbujzbktdttthjbjxMxxbcpNNlljyaji$",
",NMlhhhytaxcVMbnjhhjd8tdttddhuxjajuicvCnhhyqqhs@",
"1BbltykdtyicZnhbjkwhutdttdthujjhjaiNMzlhhqwaayw@",
"5Bzdqkh9wjjcNnjbjuh0whkhhttq0jjba9cBbyyqaujxjjj%",
"2MfeqyhhytuvNbjjjbjjujdthdwujbu0icxjbna8cnBjhjuO",
"<hqtthjzd9ugBbjjbbhuicjhqtdwxgiNBcxjblhwxcnbhjt#",
">ttttklht5ucNjhjh00ucch0uhwwucVBxjxbjhyyxbMjjlh#",
"<ddtdktyauxgxjahujccvnhjjjxj0ZAxbxblyatajjcbxbtO",
":dttdtdhzMjcAcjuucbgxMjuijiuuj00alhhywyjaiNnmbt+",
":dttttfdkrtmmbj0gvxxujuxxjxgvpgcjjahwyhauiNNjly+",
",kdffffdtedkhyhjNNcbjivcncbcvccNvjhhhdyhwNANnby+",
"<tyteerrrrthwwuivbw00jcgcjuiggicsjjhhy690pccjht+",
"oooooo..o..o.XOOOOOoOOX@@oO@$@@@O++o. .@..@@oOO ",
":*+::%:::::>:>-1>,--2,,@@,,2,,,-->;->-;;131>>>:&",
"td8ttdkfrtfdyyuAMMMbMvB@>MbvnnMxixvcxjcVAAVZnjbz",
"qtqwftfrr899wwuBjabjxMjo,binjaMuicjxjxcNZBjjjwjy",
"ahabkttetw9ivapBxbbbMcsX,cxxbjjwccccuxcvbujnmMbw",
"blhkhfrdtwuxxbxMMnljccuO,ljMjbhhcixccxxjijbMmhwb",
"bltdtee89wxMxxxMMbajnMbX,bjnhalajgxNgcbabxMjkhwj",
"ktqtt878yyjbusccxjujjvnO>lajytyyjccgNNhjjaxblddz",
"dqqltwttaajjsccxxcbcMnhO>mqtjkawicNVnjjjucxxnhdy",
"tqtkqhkddkjjjcbxZBjCblho&w9hkkqdjjNBcxbjjcjcbjd8",
"ttwuyjjkd9uxjcxgvjuMddwo:whbwu90ugNcnxbuxxcCxkkt",
"ftdahjkdqwjxjcccxjbkhdto>juxjh9ujgcjjxjbwjcMjut8",
"ftqkahld8dxnxxgNBdhjkqho>huijxgcBjcjxjijuicvjhhf",
"t7tdthltdkjjjbcVbhkqhwho:hhjcbbgccnjgnxnccxcjhhy",
"8qd8thdrkhtfhjxnjhqqhhwo>k0nNbjhjibbbcccnMjxhjjj",
"whwwjtdtyqqe8thxw0juhwwo,jwbcMkhncMjjgMbnu0Njhhw",
"jbjjhtt8dwwwdwujjjvxjujO>kdjCbdujMk0jjxciiNMjuqh",
"ajubju8qt9wwwwbbujvxhjjO>bhhkjahjj9uxjnbjNZcxxjz",
"t0jch0xjw9ujbnj80jBxjjjo>nhhyjjhquixjvxjccNcxMbk",
"wjnccxcVj0xMbjjugMMnbnjO>lhhhayquMujpvbjgccjjjjj",
"ajnbccBBcNBbh0gZCnhijjjO&kjhwyhyubixcBCbjcNngbbz",
"hbxajcvNCBMjwjxBbjuxjMjo:kkhhjkjbcbvvMbwxNBnjcbh",
"bxxjcZBvbknyjjbjxncjNbh.>jhhmzdjnbxcNxdyuvcBbjjb",
"wujjjgxcjtauujhhbhxjju9o:wwwt78twwuicby00jcx0whu",
"OO@@@@@&O&&@@&@@O@@#OO@oO##O+ooO@O##@@O@@$$O@&@O"
};
